<svg xmlns="http://www.w3.org/2000/svg" viewBox="0 0 64.1 64.1" height="243" width="243"><g fill-rule="evenodd"><path d="M32 64a32 32 0 0 0 31.8-31.8A32 32 0 0 0 32.1.5 32 32 0 0 0 .3 32.3a32 32 0 0 0 31.8 31.8" fill="#fff"/><path d="M32 56a24 24 0 0 0 23.8-23.8A24 24 0 0 0 32.1 8.4 24 24 0 0 0 8.3 32.3a24 24 0 0 0 23.8 23.8" fill="#f0f0f0"/><path d="M2.2 16.4c5.4-3 11.7-4.7 18.3-4.6s13 1.8 18.3 5L20.3 49.4z" fill="#4a741a"/><path d="M3.4 18.5a35 35 0 0 1 17.2-4.3 35 35 0 0 1 17.1 4.6L20.3 49.4z" fill="#f7d498"/><path d="M5.5 22.3c4.5-2.5 9.6-3.8 15-3.8s10.6 1.5 15 4l-15.2 27z" fill="#fa4a3e"/><path d="M24.6 35.5c-.2-.2.4-2 1-2.4s1-.5 1.4-.1.5 1 0 1.4-2 1.3-2.3 1m-8-.1c-.3.1-1.3-1.4-1.4-2s.2-1 .7-1.2 1 .2 1 1-.2 2.5-.5 2.5m6.2 2c.1.3-1 1.6-1.7 2s-1 .1-1.4-.4-.1-1 .5-1.3 2.4-.5 2.5-.2m-3 9c-.3-.1-.3-2-.1-2.6s.8-1 1.2-.7.8.7.5 1.3-1.4 2-1.7 2M22.3 30c-.1.3-1.8.6-2.5.4s-1-.6-.8-1 .5-1 1.2-.7 2.2 1 2 1.4" fill="#292627"/><path d="M50.8 54.8c-6.2-.3-12.4-2.2-18-5.8s-10-8.3-13-13.8l33-18z" fill="#5b8826"/><path d="M51 52.4A35 35 0 0 1 34.1 47 35 35 0 0 1 22 34.1l31-16.8z" fill="#ffeab9"/><path d="M51.2 48c-5-.3-10.2-1.8-14.8-4.7s-8.2-7-10.6-11.3l27-14.8z" fill="#ff6357"/><path d="M42 26.8c.1.3-1.4 1.4-2 1.5s-1-.1-1.3-.6.1-1 .8-1.2 2.5 0 2.5.3m6.5 4.2c.3.1.3 2 .1 2.6s-.8.8-1.3.7-.8-.7-.5-1.3 1.5-2 1.7-2m-3.8-5c0-.3 1.7-.8 2.4-.7s1 .5 1 1-.4 1-1 .8-2.3-1-2.3-1.2m7.2-6c.2.2-.7 1.8-1.3 2.2s-1 .3-1.4-.1-.3-1 .2-1.4 2.3-1 2.4-.7m-11 13c.2-.2 2 .5 2.4 1s.5 1 .1 1.4-1 .4-1.4-.1-1.2-2-1-2.3" fill="#292627"/></g></svg>