<svg xmlns="http://www.w3.org/2000/svg" preserveAspectRatio="xMidYMid meet" viewBox="0 0 1436 313" height="418" width="1915" xmlns:v="https://vecta.io/nano"><g fill="#fff"><path d="M1405.9 0h29.72v239h-29.72zM910.83 74.13c-6.86-2.2-15.5-3.74-28.56-.6s-29.8 14.92-36 37.52c-1.82 6.3-.8 8.94-1.12 67.64l-.25 60.3h28.68l-.08-115.9c0-12.56 10.03-22.1 22.24-22.1a22.1 22.1 0 0 1 22.11 22.11l.1 115.9h31.52l-.07-116.5c.34-11.93 10.15-21.44 22.16-21.45 12.25 0 22.2 9.88 22.2 22.07l.24 115.94 27.72-.06V117.93c-1.78-21.4-17.43-38.5-35.65-43.98-5.7-1.8-13.9-3.33-26.05-.94-7.6 1.9-17.3 5.53-25.67 15.03l-.9 1-.86-.98c-5.4-5.93-14.86-11.7-21.73-13.92zm212.8-2.4c-46.72 0-84.6 37.46-84.6 83.67s37.87 83.67 84.6 83.67c42.25-.05 77.98-30.92 83.7-72.32l-29.13-4.23c-3.6 27.07-26.9 47.3-54.5 47.34-30.4 0-55.03-24.37-55.03-54.43S1093.3 101 1123.7 101a55.4 55.4 0 0 1 37.54 14.73l-81.9 45.66 14.44 25.9 109.08-60.88c-12.26-32.82-43.86-54.63-79.24-54.67z"/><path d="M718.2 51.4a105.3 105.3 0 0 0-105.07 105.07A105.3 105.3 0 0 0 718.2 261.55a105.3 105.3 0 0 0 105.07-105.07A105.3 105.3 0 0 0 718.2 51.4zm0 26.32c43.37 0 78.75 35.37 78.75 78.75s-35.37 78.75-78.75 78.75-78.75-35.37-78.75-78.75 35.37-78.75 78.75-78.75z" fill-rule="evenodd"/></g><ellipse fill="#00222b" ry=".47" rx="1.4" cy="499.27" cx="1095.67"/><path d="M1306.73 71.73c-46.72 0-84.6 37.46-84.6 83.67s37.87 83.67 84.6 83.67a85.3 85.3 0 0 0 42.52-11.47v-37.55a55.2 55.2 0 0 1-42.44 19.8 55.3 55.3 0 0 1-38.9-15.94 54.2 54.2 0 0 1-16.12-38.5c0-30.06 24.64-54.43 55.03-54.43s55.03 24.37 55.03 54.43l-.05 1.07h.02v82.56h29.44l.07-83.66a83.2 83.2 0 0 0-24.78-59.16 85 85 0 0 0-59.8-24.5zm-917.37 0c-46.718 0-84.6 37.46-84.6 83.67s37.872 83.67 84.6 83.67 84.6-37.46 84.6-83.67-37.872-83.67-84.6-83.67zm.08 29.27c30.392 0 55.03 24.37 55.03 54.43s-24.638 54.43-55.03 54.43-55.03-24.37-55.03-54.43S359.048 101 389.44 101zM187.5 71.72V239h30v-90.97c3.74-26.93 26.98-47 54.46-47.03a55.6 55.6 0 0 1 24.23 5.7V75.35a85.2 85.2 0 0 0-24.32-3.62c-19.9 0-39.14 6.94-54.37 19.6v-19.6zm-102.9.01C37.88 71.73.01 109.2.01 155.4l.06 1.1H0V313h29.62l.03-157.57c0-30.06 24.64-54.43 55.03-54.43s55.03 24.37 55.03 54.43c0 14.44-5.8 28.28-16.12 38.5a55.3 55.3 0 0 1-38.9 15.94c-17.1-.01-33.22-7.9-43.62-21.3v38.47a85.3 85.3 0 0 0 43.54 12.04c22.43 0 43.95-8.8 59.8-24.5 32.932-32.565 32.932-85.755 0-118.32a85 85 0 0 0-59.8-24.5zm413.9 42.47c0 88.2 0 88.3 6.1 100.5 3.7 7.7 10.9 15.2 17.7 18.7 9.7 4.9 14.6 5.6 40.9 5.6h33.3v-28.9l-32.2-.3c-21.2-.3-23.6-.5-26.7-2.3-4.9-2.9-7-6.2-8.1-13-.5-3.3-1-25-1-48.3V101h44V72h-44V46h-30z" fill="#fff"/></svg>